<svg width="36" height="32" viewBox="0 0 36 32" fill="none" xmlns="http://www.w3.org/2000/svg">
<path d="M10.7288 0C11.9153 0 13.0678 0.203498 14.1864 0.610493C15.339 1.01749 16.4407 1.61102 17.4915 2.3911C17.661 2.56068 17.8475 2.73026 18.0508 2.89984C18.2203 2.73026 18.4068 2.56068 18.6102 2.3911C19.661 1.61102 20.7458 1.01749 21.8644 0.610493C23.0169 0.203498 24.1695 0 25.322 0C26.5085 0 27.661 0.203498 28.7797 0.610493C29.9322 1.01749 31.0169 1.62798 32.0339 2.44197C33.0847 3.22205 34 4.27345 34.7797 5.59618C35.5932 6.91892 36 8.49603 36 10.3275V28.6932C35.7966 30.7281 34.678 31.8304 32.6441 32C31.6949 32 30.8644 31.6948 30.1525 31.0843C29.4746 30.4399 29.1356 29.6428 29.1356 28.6932V10.7345C29.1356 9.92051 28.983 9.24218 28.678 8.69952C28.3729 8.12295 28.0339 7.68203 27.661 7.37679C27.2881 7.03763 26.8983 6.80021 26.4915 6.66455C26.0847 6.49497 25.678 6.41017 25.2712 6.41017C24.8644 6.41017 24.4576 6.49497 24.0508 6.66455C23.678 6.80021 23.3051 7.03763 22.9322 7.37679C22.5593 7.68203 22.2203 8.12295 21.9153 8.69952C21.6102 9.24218 21.4407 9.92051 21.4068 10.7345V28.6932C21.2034 30.7281 20.0847 31.8304 18.0508 32C17.1017 32 16.2712 31.6948 15.5593 31.0843C14.8814 30.4399 14.5424 29.6428 14.5424 28.6932V10.7345C14.5424 9.92051 14.3898 9.24218 14.0847 8.69952C13.7797 8.12295 13.4407 7.68203 13.0678 7.37679C12.6949 7.03763 12.3051 6.80021 11.8983 6.66455C11.4915 6.49497 11.0847 6.41017 10.678 6.41017C10.2712 6.41017 9.86441 6.49497 9.45763 6.66455C9.08475 6.80021 8.71186 7.03763 8.33898 7.37679C7.9661 7.68203 7.62712 8.12295 7.32203 8.69952C7.01695 9.24218 6.84746 9.92051 6.81356 10.7345V28.6932C6.64407 30.7281 5.54237 31.8304 3.50847 32C2.55932 32 1.72881 31.6948 1.01695 31.0843C0.338983 30.4399 0 29.6428 0 28.6932V10.3275C0.0677966 8.49603 0.491525 6.91892 1.27119 5.59618C2.05085 4.27345 2.9661 3.22205 4.01695 2.44197C5.0678 1.62798 6.15254 1.01749 7.27119 0.610493C8.42373 0.203498 9.57627 0 10.7288 0Z" fill="#F4F264"/>
</svg>
